<?xml version="1.0" standalone="no"?>
<!DOCTYPE svg PUBLIC "-//W3C//DTD SVG 20010904//EN"
 "http://www.w3.org/TR/2001/REC-SVG-20010904/DTD/svg10.dtd">
<svg version="1.0" xmlns="http://www.w3.org/2000/svg"
 width="512.000000pt" height="512.000000pt" viewBox="0 0 512.000000 512.000000"
 preserveAspectRatio="xMidYMid meet">
<metadata>
Created by potrace 1.14, written by Peter Selinger 2001-2017
</metadata>
<g transform="translate(0.000000,512.000000) scale(0.100000,-0.100000)"
fill="#000000" stroke="none">
<path d="M0 2560 l0 -2560 2560 0 2560 0 0 2560 0 2560 -2560 0 -2560 0 0
-2560z m3087 705 c112 -33 164 -104 182 -253 19 -148 -12 -297 -124 -593 -101
-269 -106 -325 -34 -395 l40 -39 43 23 c24 13 91 68 150 124 89 84 106 96 106
76 0 -163 -220 -348 -413 -348 -133 0 -152 25 -152 190 1 90 6 125 39 243 l38
139 -26 27 -27 28 -206 7 -206 7 -27 -26 c-35 -34 -48 -107 -61 -358 -5 -104
-14 -198 -20 -208 -12 -23 -91 -64 -139 -73 -57 -10 -70 7 -77 94 -6 87 16
255 52 393 l24 92 -28 29 -29 28 -106 -12 c-59 -7 -110 -10 -114 -6 -19 19
133 93 240 116 74 17 104 49 157 169 125 285 279 462 455 523 64 22 194 24
263 3z m842 -8 c111 -39 191 -128 255 -285 19 -46 46 -97 62 -113 l28 -29 29
27 c15 16 77 104 135 197 59 93 114 180 122 193 12 18 23 23 58 23 71 0 132
-19 132 -42 0 -57 -157 -292 -368 -553 -36 -44 -69 -85 -75 -92 -5 -8 1 -62
17 -150 31 -160 59 -259 91 -323 25 -49 95 -120 119 -120 38 0 78 29 179 128
l110 107 -7 -45 c-23 -160 -185 -305 -353 -317 -87 -7 -131 11 -172 67 -33 46
-79 158 -106 260 -12 42 -29 76 -48 97 -29 31 -31 32 -50 15 -11 -9 -47 -53
-80 -97 -147 -192 -240 -279 -352 -331 -50 -23 -155 -43 -155 -30 0 4 73 80
163 169 156 156 274 291 386 445 l53 72 -26 129 c-15 71 -31 144 -36 162 -12
41 -59 91 -79 84 -75 -22 -225 -8 -304 28 -74 34 -91 66 -85 161 7 108 35 147
128 177 37 12 178 3 229 -14z m-2468 -11 c221 -61 328 -171 385 -396 27 -109
25 -323 -4 -445 -33 -133 -111 -284 -186 -360 -68 -67 -177 -129 -291 -165
-96 -30 -254 -37 -362 -17 -78 15 -83 15 -120 -4 -29 -15 -49 -18 -83 -13 -63
9 -77 19 -85 56 -8 40 -52 88 -121 134 -56 37 -107 84 -100 92 3 2 41 -4 86
-14 l81 -17 28 27 c22 21 31 41 36 83 18 146 86 369 176 582 44 104 76 151
103 151 38 0 30 -86 -34 -367 -22 -95 -48 -225 -59 -290 -35 -213 -35 -195 2
-230 26 -26 46 -33 108 -43 42 -7 112 -11 155 -9 109 5 173 38 279 143 139
138 205 306 205 523 -1 209 -63 352 -194 442 -126 87 -267 81 -609 -28 -194
-62 -225 -51 -98 33 96 64 211 112 341 142 71 17 285 11 361 -10z"/>
<path d="M2851 3049 c-123 -24 -235 -151 -301 -343 l-18 -53 221 -7 c130 -4
224 -3 229 2 18 18 51 168 51 237 1 132 -61 188 -182 164z"/>
<path d="M3787 3143 c-4 -3 -7 -23 -7 -44 0 -30 7 -46 34 -72 31 -31 123 -74
134 -62 10 10 -43 119 -73 151 -30 32 -71 45 -88 27z"/>
</g>
</svg>
